<svg width="250" height="250" viewBox="0 0 250 250" fill="none" xmlns="http://www.w3.org/2000/svg">
<rect width="250" height="250" fill="#CCCCCC"/>
<path d="M117.125 153.417H133.875C147.833 153.417 153.417 147.833 153.417 133.875V117.125C153.417 103.167 147.833 97.5835 133.875 97.5835H117.125C103.167 97.5835 97.5835 103.167 97.5835 117.125V133.875C97.5835 147.833 103.167 153.417 117.125 153.417Z" stroke="white" stroke-width="5.5" stroke-linecap="round" stroke-linejoin="round"/>
<path d="M117.125 119.917C120.208 119.917 122.708 117.417 122.708 114.333C122.708 111.25 120.208 108.75 117.125 108.75C114.041 108.75 111.542 111.25 111.542 114.333C111.542 117.417 114.041 119.917 117.125 119.917Z" stroke="white" stroke-width="4.5" stroke-linecap="round" stroke-linejoin="round"/>
<path d="M99.4536 144.902L113.217 135.662C115.422 134.182 118.604 134.35 120.587 136.053L121.508 136.862C123.685 138.733 127.203 138.733 129.38 136.862L140.994 126.896C143.171 125.026 146.689 125.026 148.866 126.896L153.417 130.804" stroke="white" stroke-width="5.5" stroke-linecap="round" stroke-linejoin="round"/>
</svg>
